<svg xmlns="http://www.w3.org/2000/svg" viewBox="0 0 800 600" width="800" height="600">
  <defs>
    <radialGradient id="ws" cx="50%" cy="35%" r="55%">
      <stop offset="0%" stop-color="#ffcf80" stop-opacity="0.5"/>
      <stop offset="100%" stop-color="#0a0604" stop-opacity="0"/>
    </radialGradient>
  </defs>
  <rect width="800" height="600" fill="#0a0604"/>
  <rect width="800" height="600" fill="url(#ws)"/>
  <!-- spotlight cone -->
  <polygon points="380,80 420,80 540,360 260,360" fill="#ffb060" opacity="0.18"/>
  <!-- podium -->
  <rect x="370" y="320" width="60" height="80" fill="#5a3820"/>
  <rect x="350" y="395" width="100" height="10" fill="#3a2818"/>
  <!-- audience seats -->
  <g fill="#3a2818">
    <rect x="180" y="450" width="32" height="42"/>
    <rect x="220" y="450" width="32" height="42"/>
    <rect x="260" y="450" width="32" height="42"/>
    <rect x="300" y="450" width="32" height="42"/>
    <rect x="340" y="450" width="32" height="42"/>
    <rect x="380" y="450" width="32" height="42"/>
    <rect x="420" y="450" width="32" height="42"/>
    <rect x="460" y="450" width="32" height="42"/>
    <rect x="500" y="450" width="32" height="42"/>
    <rect x="540" y="450" width="32" height="42"/>
    <rect x="580" y="450" width="32" height="42"/>
  </g>
  <g font-family="Georgia, serif" fill="#f5e5cc" opacity="0.9">
    <text x="60" y="80" font-size="20" font-style="italic" letter-spacing="2">— AI WORKSHOPS</text>
    <text x="60" y="540" font-size="34" font-style="italic">schools · students · clarity</text>
  </g>
</svg>
